<?xml version="1.0" encoding="utf-8"?>
<!-- Generator: Adobe Illustrator 16.0.0, SVG Export Plug-In . SVG Version: 6.00 Build 0)  -->
<!DOCTYPE svg PUBLIC "-//W3C//DTD SVG 1.1//EN" "http://www.w3.org/Graphics/SVG/1.1/DTD/svg11.dtd">
<svg version="1.1" id="Layer_1" xmlns="http://www.w3.org/2000/svg" xmlns:xlink="http://www.w3.org/1999/xlink" x="0px" y="0px"
	 width="120px" height="35px" viewBox="0 0 120 35" enable-background="new 0 0 120 35" xml:space="preserve">
<path fill="#CE202C" d="M0,23.333h52.414V35H0V23.333z"/>
<path fill="#273376" d="M0,11.667h52.414v11.667H0V11.667z"/>
<path fill="#FFCC02" d="M0,0h52.414v11.667H0V0z"/>
<g>
	<polygon fill="#FFFFFF" points="28.424,13.774 28.28,12.722 27.784,13.659 26.741,13.475 27.476,14.237 26.98,15.172 
		27.931,14.709 28.665,15.472 28.517,14.42 29.47,13.957 	"/>
	<polygon fill="#FFFFFF" points="31.819,15.819 32.874,15.708 32.874,15.708 32.874,15.708 32.874,15.708 32.874,15.708 
		31.956,15.183 32.176,14.146 31.392,14.854 30.476,14.324 30.905,15.288 30.119,15.997 31.17,15.886 31.598,16.856 	"/>
	<polygon fill="#FFFFFF" points="34.446,18.269 35.473,18.525 34.793,17.71 35.354,16.813 34.372,17.208 33.692,16.397 
		33.765,17.454 32.785,17.849 33.813,18.11 33.886,19.167 	"/>
	<polygon fill="#FFFFFF" points="36.591,21.061 37.425,20.41 36.369,20.445 36.009,19.451 35.716,20.469 34.658,20.507 35.534,21.1 
		35.243,22.118 36.076,21.467 36.953,22.055 	"/>
	<polygon fill="#FFFFFF" points="23.984,13.774 24.135,12.722 24.631,13.659 25.671,13.475 24.938,14.237 25.435,15.172 
		24.483,14.709 23.75,15.472 23.896,14.42 22.944,13.957 	"/>
	<polygon fill="#FFFFFF" points="20.596,15.819 19.541,15.708 19.541,15.708 19.541,15.708 19.541,15.708 19.541,15.708 
		20.458,15.183 20.239,14.146 21.023,14.854 21.939,14.324 21.51,15.288 22.295,15.997 21.245,15.886 20.813,16.856 	"/>
	<polygon fill="#FFFFFF" points="17.969,18.269 16.94,18.525 17.624,17.71 17.062,16.813 18.043,17.208 18.722,16.397 18.65,17.454 
		19.63,17.849 18.603,18.11 18.529,19.167 	"/>
	<polygon fill="#FFFFFF" points="15.823,21.061 14.99,20.41 16.045,20.445 16.406,19.451 16.699,20.469 17.754,20.507 16.877,21.1 
		17.172,22.118 16.339,21.467 15.462,22.055 	"/>
</g>
<g>
	<rect x="67.587" fill="#FFFFFF" width="52.413" height="35"/>
	<polygon fill="#035392" points="82.278,9.265 84.845,7.399 81.671,7.399 80.689,4.375 79.711,7.399 76.535,7.399 79.105,9.265 
		78.122,12.289 80.689,10.422 83.256,12.289 	"/>
	<rect x="67.587" y="17.497" fill="#035392" width="26.207" height="17.503"/>
	<rect x="93.794" fill="#D31F36" width="26.206" height="17.497"/>
	<polygon fill="#D31F36" points="108.482,26.767 111.05,24.896 107.876,24.896 106.896,21.876 105.916,24.896 102.742,24.896 
		105.31,26.767 104.327,29.786 106.896,27.92 109.465,29.786 	"/>
</g>
</svg>
