<?xml version="1.0" encoding="utf-8"?>
<!-- Generator: Adobe Illustrator 16.0.0, SVG Export Plug-In . SVG Version: 6.00 Build 0)  -->
<!DOCTYPE svg PUBLIC "-//W3C//DTD SVG 1.1//EN" "http://www.w3.org/Graphics/SVG/1.1/DTD/svg11.dtd">
<svg version="1.1" id="Layer_1" xmlns="http://www.w3.org/2000/svg" xmlns:xlink="http://www.w3.org/1999/xlink" x="0px" y="0px"
	 width="450.501px" height="130.497px" viewBox="0 -0.497 450.501 130.497" enable-background="new 0 -0.497 450.501 130.497"
	 xml:space="preserve">
<g>
	<g>
		<g>
			<defs>
				<path id="SVGID_1_" d="M56.786,85.063L29.047,58.146V9.514C11.585,20.749,0.022,40.338,0.022,62.635
					c0,32.701,24.882,59.596,56.763,62.805L56.786,85.063L56.786,85.063z"/>
			</defs>
			<use xlink:href="#SVGID_1_"  overflow="visible"/>
			<clipPath id="SVGID_2_">
				<use xlink:href="#SVGID_1_"  overflow="visible"/>
			</clipPath>
			<rect x="0.023" y="9.516" clip-path="url(#SVGID_2_)" width="56.762" height="115.922"/>
			<path clip-path="url(#SVGID_2_)" d="M57.785,67.477V35.211h2.91c-8.266-8.258-19.68-13.363-32.289-13.363
				c-12.613,0-24.027,5.105-32.293,13.363h2.91v64.531h-2.91c8.266,8.258,19.68,13.363,32.293,13.363
				c12.609,0,24.023-5.105,32.289-13.363h-2.91V67.477z"/>
			<path clip-path="url(#SVGID_2_)" d="M57.785,67.434v-16.91v-7.375H63c-1.563-2.313-3.34-4.465-5.309-6.43
				c-7.867-7.859-18.734-12.723-30.738-12.723S4.082,28.859-3.785,36.719h2.809v61.43h-2.809
				c7.867,7.859,18.734,12.719,30.738,12.719s22.871-4.859,30.738-12.719c1.969-1.969,3.746-4.117,5.309-6.43h-5.215V67.434z"/>
			<path clip-path="url(#SVGID_2_)" d="M57.785,67.434V51.379v-7.004h3.395c-1.48-2.195-3.172-4.242-5.039-6.105
				c-7.469-7.465-17.789-12.082-29.188-12.082S5.234,30.805-2.234,38.27h1.258v58.328h-1.258
				c7.469,7.465,17.789,12.078,29.188,12.078s21.719-4.613,29.188-12.078c1.867-1.867,3.559-3.91,5.039-6.105h-3.395V67.434z"/>
			<path clip-path="url(#SVGID_2_)" d="M62.977,67.371c0-21.031-17.066-38.082-38.113-38.082c-10.523,0-20.051,4.262-26.949,11.152
				h1.109v53.855h-1.109c6.898,6.891,16.426,11.156,26.949,11.156C45.91,105.453,62.977,88.402,62.977,67.371z"/>
			<path clip-path="url(#SVGID_2_)" d="M59.813,67.371c0-19.285-15.648-34.922-34.949-34.922c-9.652,0-18.387,3.91-24.711,10.23
				c-3.164,3.156-5.723,6.922-7.492,11.098h6.363v27.184H-7.34c1.77,4.18,4.328,7.941,7.492,11.102
				c6.324,6.32,15.059,10.227,24.711,10.227C44.164,102.289,59.813,86.656,59.813,67.371z"/>
			<path clip-path="url(#SVGID_2_)" d="M53.578,67.297c0-17.219-13.965-31.172-31.195-31.172c-8.613,0-16.414,3.488-22.059,9.129
				c-2.824,2.82-5.105,6.18-6.688,9.91h5.387V79.43h-5.387c1.582,3.727,3.863,7.086,6.688,9.906
				c5.645,5.641,13.445,9.129,22.059,9.129C39.613,98.465,53.578,84.512,53.578,67.297z"/>
			<ellipse clip-path="url(#SVGID_2_)" cx="22.383" cy="67.297" rx="27.445" ry="27.426"/>
			<ellipse clip-path="url(#SVGID_2_)" cx="19.607" cy="67.211" rx="23.244" ry="23.227"/>
			<ellipse clip-path="url(#SVGID_2_)" cx="19.605" cy="67.211" rx="19.043" ry="19.027"/>
			<ellipse clip-path="url(#SVGID_2_)" cx="16.582" cy="67.121" rx="14.465" ry="14.453"/>
			<ellipse clip-path="url(#SVGID_2_)" cx="16.582" cy="67.121" rx="9.887" ry="9.879"/>
			<path clip-path="url(#SVGID_2_)" d="M21.672,67.07c0-3.684-2.988-6.672-6.68-6.672s-6.68,2.988-6.68,6.672
				c0,3.688,2.988,6.68,6.68,6.68S21.672,70.758,21.672,67.07z"/>
			<path clip-path="url(#SVGID_2_)" d="M16.879,67.023c0-1.918-1.555-3.473-3.477-3.473c-1.918,0-3.473,1.555-3.473,3.473
				s1.555,3.473,3.473,3.473C15.324,70.496,16.879,68.941,16.879,67.023z"/>
		</g>
	</g>
	<g>
		<g>
			<defs>
				<path id="SVGID_3_" d="M74.658,58.809h18.679l28.616,27.087c2.857-7.196,4.429-15.049,4.429-23.261
					c0-24.794-14.296-46.24-35.102-56.57v31.348H78.431V1.355c-4.876-1.205-9.975-1.852-15.232-1.852
					c-7.484,0-14.661,1.3-21.322,3.693v54.95l27.742,26.917v40.377c19.228-1.938,35.917-12.489,46.127-27.739L74.658,58.809z"/>
			</defs>
			<use xlink:href="#SVGID_3_"  overflow="visible"/>
			<clipPath id="SVGID_4_">
				<use xlink:href="#SVGID_3_"  overflow="visible"/>
			</clipPath>
			<rect x="41.875" y="-0.496" clip-path="url(#SVGID_4_)" width="84.508" height="125.934"/>
			<path clip-path="url(#SVGID_4_)" d="M127.383,24.02V-1.496H40.875v89.199h-6.453c4.086,2.758,8.457,5.137,13.055,7.078
				c9.195,3.891,19.305,6.039,29.918,6.039c21.223,0,40.441-8.598,54.348-22.496h-4.359V24.02z"/>
			<path clip-path="url(#SVGID_4_)" d="M127.383,23.988V-1.496H40.875v86.18h-6.324c3.895,2.629,8.059,4.895,12.441,6.746
				c8.766,3.707,18.398,5.754,28.516,5.754c20.227,0,38.539-8.191,51.797-21.438c1.656-1.656,3.234-3.391,4.727-5.199h-4.648V23.988
				z"/>
			<path clip-path="url(#SVGID_4_)" d="M127.383,23.988V-1.496H40.875v83.191h-4.309c3.707,2.5,7.664,4.652,11.832,6.414
				c8.332,3.523,17.492,5.469,27.109,5.469c19.23,0,36.641-7.789,49.242-20.383c3.152-3.148,6.004-6.598,8.508-10.297h-5.875V23.988
				z"/>
			<path clip-path="url(#SVGID_4_)" d="M127.383,23.945V-1.117v-0.379H40.875v78.84h-4.121c3.43,2.313,7.094,4.305,10.949,5.934
				c7.707,3.262,16.184,5.063,25.082,5.063c17.797,0,33.906-7.207,45.57-18.863c5.832-5.824,10.551-12.762,13.809-20.465h-4.781
				V23.945z"/>
			<path clip-path="url(#SVGID_4_)" d="M132.031,23.945c0-8.172-1.66-15.961-4.656-23.043c-0.75-1.77-1.582-3.496-2.496-5.176v2.777
				H40.875v74.527H39.66c3.152,2.129,6.52,3.961,10.066,5.461c7.086,2.992,14.879,4.652,23.059,4.652
				C105.508,83.145,132.031,56.641,132.031,23.945z"/>
			<path clip-path="url(#SVGID_4_)" d="M122.637,23.895c0-7.324-1.488-14.297-4.172-20.645c-1.344-3.172-2.988-6.188-4.895-9.008
				v4.262H40.875v69.367h-0.992c2.824,1.906,5.84,3.551,9.016,4.891c6.352,2.684,13.332,4.168,20.66,4.168
				C98.871,76.93,122.637,53.184,122.637,23.895z"/>
			<path clip-path="url(#SVGID_4_)" d="M116.469,23.895c0-6.473-1.313-12.637-3.688-18.246c-1.188-2.805-2.641-5.469-4.324-7.961
				v0.816H40.875v58.535h-4.484c8.488,8.48,20.215,13.727,33.168,13.727C95.465,70.766,116.469,49.781,116.469,23.895z"/>
			<path clip-path="url(#SVGID_4_)" d="M105.941,23.836c0-11.035-4.477-21.027-11.715-28.258v2.926H40.875v53.594H37.66
				c7.238,7.23,17.238,11.707,28.285,11.707C88.035,63.805,105.941,45.91,105.941,23.836z"/>
			<path clip-path="url(#SVGID_4_)" d="M99.031,23.836c0-9.129-3.703-17.395-9.691-23.379c-2.992-2.988-6.559-5.41-10.516-7.082
				v5.129H53.063v-5.129c-3.957,1.672-7.523,4.094-10.516,7.082c-2.996,2.992-5.418,6.555-7.094,10.512h5.422v25.738h-5.422
				c1.676,3.957,4.098,7.516,7.094,10.508c5.988,5.984,14.258,9.684,23.398,9.684C84.219,56.898,99.031,42.098,99.031,23.836z"/>
			<ellipse clip-path="url(#SVGID_4_)" cx="62.004" cy="23.773" rx="25.559" ry="25.539"/>
			<path clip-path="url(#SVGID_4_)" d="M80.035,23.773c0-9.949-8.074-18.016-18.031-18.016s-18.031,8.066-18.031,18.016
				c0,9.953,8.074,18.016,18.031,18.016S80.035,33.727,80.035,23.773z"/>
			<path clip-path="url(#SVGID_4_)" d="M72.668,23.742c0-7.031-5.703-12.734-12.738-12.734c-7.039,0-12.742,5.703-12.742,12.734
				s5.703,12.73,12.742,12.73C66.965,36.473,72.668,30.773,72.668,23.742z"/>
			<path clip-path="url(#SVGID_4_)" d="M65.301,23.707c0-4.109-3.332-7.445-7.449-7.445c-4.113,0-7.449,3.336-7.449,7.445
				c0,4.113,3.336,7.445,7.449,7.445C61.969,31.152,65.301,27.82,65.301,23.707z"/>
			<circle clip-path="url(#SVGID_4_)" cx="57.852" cy="23.707" r="2.16"/>
			<path clip-path="url(#SVGID_4_)" d="M58.711,23.699c0-0.719-0.582-1.305-1.305-1.305s-1.309,0.586-1.309,1.305
				c0,0.723,0.586,1.309,1.309,1.309S58.711,24.422,58.711,23.699z"/>
		</g>
	</g>
</g>
<g>
	<path d="M396.636,112.482c0,1.879-0.894,3.373-2.684,4.49c-1.793,1.121-3.669,1.67-5.659,1.67c-2.335,0-4.412-0.806-6.211-2.447
		c-1.807-1.633-2.699-3.584-2.699-5.848c0-1.979,0.926-3.742,2.811-5.277c1.873-1.547,3.917-2.32,6.146-2.32
		c2.003,0,3.874,0.53,5.604,1.587c1.722,1.056,2.585,2.581,2.585,4.575h-4.635c-0.127-0.581-0.733-2.415-3.657-2.415
		s-3.975,2.499-3.975,3.985s1.291,4.42,3.905,4.42s3.508-1.498,3.685-2.074l0.081-0.346H396.636z"/>
</g>
<g>
	<path d="M402.425,118.254h-5.538v-4.368h5.538V118.254z"/>
</g>
<g>
	<path d="M421.448,118.254h-4.915l-0.51-1.893h-7.031l-0.564,1.893h-4.732l5.343-15.068h7.022L421.448,118.254z M415.127,113.223
		l-1.414-5.104h-2.325l-1.505,5.104H415.127z"/>
</g>
<g>
	<path d="M169.612,118.213h-9.351l-0.742-2.479c-1.533,1.009-3.888,1.83-7.074,2.457c-3.182,0.627-6.041,0.936-8.567,0.936
		c-6.24,0-11.838-1.511-16.829-4.545c-4.987-3.042-7.472-6.766-7.472-11.15c0-4.475,2.6-8.345,7.807-11.601
		c5.215-3.253,10.905-4.879,17.054-4.879c6.323,0,11.123,0.538,14.435,1.612c3.3,1.072,5.59,2.384,6.887,3.92
		c1.28,1.543,2.362,3.416,3.234,5.627h-13.656c-0.453-1.102-1.776-1.978-3.988-2.612c-2.194-0.647-4.254-0.963-6.168-0.963
		c-2.74,0-5.441,0.886-8.093,2.659c-2.662,1.779-3.991,3.853-3.991,6.234c0,2.273,1.22,4.109,3.646,5.524
		c2.426,1.41,5.31,2.307,8.628,2.712c2.164,0,4.429-0.313,6.794-0.953c2.371-0.64,3.766-1.507,4.186-2.615h-6.304v-6.668h19.567
		v16.783H169.612z"/>
</g>
<g>
	<path d="M185.979,118.213h-12.425V87.688h12.425V118.213z"/>
</g>
<g>
	<path d="M233.98,118.213h-11.807l-20.947-15.911v15.911h-11.552V87.688h11.552l21.189,16.051V87.688h11.564V118.213L233.98,118.213
		z"/>
</g>
<g>
	<path d="M309.975,97.557c0.819,1.98,1.241,3.674,1.241,5.068c0,1.632-0.639,3.777-1.898,6.441c-1.273,2.662-3.268,4.854-5.994,6.57
		c-2.714,1.721-6.159,2.575-10.308,2.575h-28.265V87.688h29.765c3.86,0,7.084,0.901,9.651,2.707
		C306.755,92.2,308.676,94.588,309.975,97.557z M296.753,102.625c0-2.1-0.563-3.838-1.717-5.206
		c-1.132-1.366-2.874-2.054-5.199-2.054h-13.153v15.261h12.592c2.455,0,4.308-0.804,5.57-2.399
		C296.126,106.619,296.753,104.753,296.753,102.625z"/>
</g>
<g>
	<path d="M326.281,118.213H313.85V87.688h12.432V118.213z"/>
</g>
<g>
	<path d="M371.037,118.213h-12.378l-1.493-3.838h-20.317l-1.618,3.838h-11.87l15.456-30.525h16.634L371.037,118.213z
		 M354.614,108.011l-4.118-10.331h-6.728l-4.359,10.331H354.614z"/>
</g>
<g>
	<g>
		<rect x="111.603" y="123.341" width="326.906" height="1"/>
	</g>
	<g>
		<g>
			<path d="M444.348,130.004c-3.409,0-6.183-2.771-6.183-6.177c0-3.403,2.773-6.172,6.183-6.172c3.405,0,6.175,2.769,6.175,6.172
				C450.522,127.233,447.753,130.004,444.348,130.004z M444.348,118.655c-2.857,0-5.183,2.32-5.183,5.172
				c0,2.854,2.325,5.177,5.183,5.177c2.854,0,5.175-2.322,5.175-5.177C449.522,120.976,447.201,118.655,444.348,118.655z"/>
		</g>
		<g>
			<path d="M444.348,121.291c-0.448,0-0.813-0.364-0.813-0.813c0-0.444,0.365-0.807,0.813-0.807
				c0.445,0.001,0.808,0.363,0.808,0.807C445.155,120.927,444.793,121.291,444.348,121.291z M444.347,120.172
				c-0.175,0-0.313,0.135-0.313,0.307s0.141,0.313,0.313,0.313c0.17,0,0.308-0.141,0.308-0.313
				C444.655,120.31,444.517,120.173,444.347,120.172z"/>
		</g>
		<g>
			<path d="M444.348,128.268c-0.448,0-0.813-0.364-0.813-0.812c0-0.448,0.365-0.813,0.813-0.813
				c0.446,0.003,0.808,0.368,0.808,0.813C445.155,127.903,444.793,128.268,444.348,128.268z M444.346,127.143
				c-0.174,0-0.312,0.138-0.312,0.313c0,0.172,0.141,0.312,0.313,0.312c0.17,0,0.308-0.14,0.308-0.312
				S444.517,127.144,444.346,127.143z"/>
		</g>
	</g>
</g>
<g>
	<rect x="235.397" y="99.161" width="23.288" height="7.103"/>
	<rect x="235.397" y="110.891" width="27.401" height="7.322"/>
	<rect x="235.397" y="87.688" width="26.589" height="7.332"/>
</g>
</svg>
