<?xml version="1.0" encoding="utf-8"?>
<!-- Generator: Adobe Illustrator 16.0.0, SVG Export Plug-In . SVG Version: 6.00 Build 0)  -->
<!DOCTYPE svg PUBLIC "-//W3C//DTD SVG 1.1//EN" "http://www.w3.org/Graphics/SVG/1.1/DTD/svg11.dtd">
<svg version="1.1" id="Layer_1" xmlns="http://www.w3.org/2000/svg" xmlns:xlink="http://www.w3.org/1999/xlink" x="0px" y="0px"
	 width="422px" height="132px" viewBox="14.25 -0.251 422 132" enable-background="new 14.25 -0.251 422 132" xml:space="preserve">
<g>
	<defs>
		<path id="SVGID_1_" d="M14.25,65.95c0,34.3,26.069,62.498,59.458,65.865V89.478l-29.05-28.229V10.246
			C26.354,22.028,14.25,42.571,14.25,65.95"/>
	</defs>
	<use xlink:href="#SVGID_1_"  overflow="visible" fill="#FFFFFF"/>
	<clipPath id="SVGID_2_">
		<use xlink:href="#SVGID_1_"  overflow="visible"/>
	</clipPath>
	<path clip-path="url(#SVGID_2_)" fill="#FFFFFF" d="M14.25,65.955c0,34.295,26.073,62.494,59.458,65.865V89.478L44.653,61.245
		V10.25C26.354,22.028,14.25,42.571,14.25,65.955"/>
	<g opacity="0.6" clip-path="url(#SVGID_2_)">
		<g>
			<defs>
				<rect id="SVGID_3_" x="-38.042" y="-34.449" width="180.826" height="180.912"/>
			</defs>
			<use xlink:href="#SVGID_3_"  overflow="visible" fill="#FFFFFF"/>
			<clipPath id="SVGID_4_">
				<use xlink:href="#SVGID_3_"  overflow="visible"/>
			</clipPath>
			<g clip-path="url(#SVGID_4_)">
				<defs>
					<path id="SVGID_5_" d="M142.783,56.008c0,49.957-40.479,90.455-90.411,90.455c-49.933,0-90.415-40.498-90.415-90.455
						c0-49.964,40.482-90.458,90.415-90.458C102.305-34.449,142.783,6.044,142.783,56.008"/>
				</defs>
				<use xlink:href="#SVGID_5_"  overflow="visible" fill="#FFFFFF"/>
				<clipPath id="SVGID_6_">
					<use xlink:href="#SVGID_5_"  overflow="visible"/>
				</clipPath>
			</g>
		</g>
	</g>
</g>
<g>
	<defs>
		<path id="SVGID_7_" d="M58.088,3.624v57.625l29.059,28.229v42.338c20.134-2.026,37.605-13.094,48.311-29.086l-43.04-40.788h19.563
			l29.983,28.401c2.986-7.543,4.624-15.765,4.624-24.393c0-25.993-14.964-48.489-36.757-59.326V39.5H96.375V1.687
			c-5.107-1.265-10.445-1.941-15.951-1.941C72.578-0.254,65.056,1.111,58.088,3.624"/>
	</defs>
	<use xlink:href="#SVGID_7_"  overflow="visible" fill="#FFFFFF"/>
	<clipPath id="SVGID_8_">
		<use xlink:href="#SVGID_7_"  overflow="visible"/>
	</clipPath>
	<path clip-path="url(#SVGID_8_)" fill="#FFFFFF" d="M58.084,3.62v57.628l29.063,28.229v42.338
		c20.134-2.026,37.605-13.098,48.311-29.091l-43.04-40.778h19.567l29.975,28.4c2.99-7.543,4.632-15.773,4.632-24.392
		c0-25.997-14.968-48.49-36.761-59.327v32.876H96.379V1.691C91.263,0.422,85.929-0.25,80.423-0.25
		C72.582-0.25,65.056,1.111,58.084,3.62"/>
	<g opacity="0.6" clip-path="url(#SVGID_8_)">
		<g>
			<defs>
				<rect id="SVGID_9_" x="3.074" y="-41.731" width="180.822" height="180.907"/>
			</defs>
			<use xlink:href="#SVGID_9_"  overflow="visible" fill="#FFFFFF"/>
			<clipPath id="SVGID_10_">
				<use xlink:href="#SVGID_9_"  overflow="visible"/>
			</clipPath>
			<g clip-path="url(#SVGID_10_)">
				<defs>
					<path id="SVGID_11_" d="M183.896,48.726c0,49.961-40.475,90.45-90.411,90.45c-49.932,0-90.411-40.488-90.411-90.45
						c0-49.96,40.479-90.458,90.411-90.458C143.421-41.731,183.896-1.234,183.896,48.726"/>
				</defs>
				<use xlink:href="#SVGID_11_"  overflow="visible" fill="#FFFFFF"/>
				<clipPath id="SVGID_12_">
					<use xlink:href="#SVGID_11_"  overflow="visible"/>
				</clipPath>
			</g>
		</g>
	</g>
</g>
<path fill="#FFFFFF" d="M180.498,75.477h23.478v23.665h-12.188v-4.362c-0.723,0.668-1.29,1.178-2.789,2.122
	c-2.138,1.291-6.157,3.417-13.985,3.417c-11.743,0-22.532-6.606-22.532-20.423c0-1.395,0.113-2.848,0.399-4.251
	c0.727-3.916,2.684-8.278,6.93-11.799c5.536-4.588,12.856-5.983,20.059-5.983c3.087,0,6.224,0.328,9.235,0.95
	c4.801,1.067,8.387,2.794,11.407,6.261c1.222,1.399,1.621,2.354,2.243,3.639l-13.986,1.45c-2.566-2.681-5.649-3.408-8.668-3.408
	c-9.332,0-13.083,6.883-13.083,12.757c0,8.051,5.821,11.799,12.243,11.799c5.598,0,10.625-3.017,11.529-6.883h-10.29V75.477z"/>
<rect x="208.331" y="59.652" fill="#FFFFFF" width="14.137" height="39.498"/>
<path fill="#FFFFFF" d="M226.886,59.652h11.688l12.13,13.312c3.46,3.747,4.191,4.639,6.979,8.276
	c-0.218-5.428-0.265-7.327-0.265-12.639v-8.95h13.906v39.494h-11.734l-14.478-16.342c-2.007-2.344-2.688-3.188-4.473-5.42
	c0.168,6.823,0.168,8.332,0.218,13.37v8.392h-13.973V59.652z"/>
<path fill="#FFFFFF" d="M302.009,59.647h22.42c4.082,0,15.543-0.223,21.023,9.342c0.836,1.454,2.738,4.924,2.738,10.798
	c0,3.075-0.554,6.206-1.789,9.004c-1.012,2.299-2.852,5.484-7.379,7.837c-4.242,2.231-8.16,2.521-11.961,2.521h-25.053V59.647z
	 M315.823,90.191h6.207c4.805,0,7.543-0.892,9.168-2.354c1.895-1.676,3.184-4.975,3.184-8.327c0-3.748-1.512-6.604-3.52-8.224
	c-2.461-1.962-5.82-2.238-8.445-2.238h-6.594V90.191z"/>
<rect x="350.249" y="59.652" fill="#FFFFFF" width="14.145" height="39.498"/>
<path fill="#FFFFFF" d="M380.603,59.652H396.7l17.119,39.494h-15.381l-2.125-6.442h-15.09l-2.135,6.442h-15.484L380.603,59.652z
	 M388.708,70.614l-4.527,13.366h9.172L388.708,70.614z"/>
<g>
	<path fill="#FFFFFF" d="M429.61,97.964c-3.422,0-6.254,2.618-6.606,5.955H142.515v1.395h280.488
		c0.349,3.334,3.183,5.945,6.607,5.945c3.662,0,6.641-2.979,6.641-6.638C436.251,100.956,433.272,97.964,429.61,97.964z
		 M429.61,109.864c-2.895,0-5.264-2.345-5.264-5.243c0-2.904,2.369-5.262,5.264-5.262c2.893,0,5.25,2.357,5.25,5.262
		C434.86,107.52,432.503,109.864,429.61,109.864z"/>
	<path fill="#FFFFFF" d="M429.61,100.174c-0.518,0-0.934,0.407-0.934,0.926c0,0.52,0.426,0.936,0.934,0.936
		c0.512,0,0.928-0.416,0.928-0.936C430.538,100.585,430.122,100.174,429.61,100.174z"/>
	<path fill="#FFFFFF" d="M429.61,107.478c-0.508,0-0.934,0.421-0.934,0.941c0,0.509,0.426,0.933,0.934,0.933
		c0.512,0,0.928-0.424,0.928-0.933C430.538,107.898,430.122,107.478,429.61,107.478z"/>
</g>
<g>
	<rect x="274.325" y="90.195" fill="#FFFFFF" width="25.067" height="8.95"/>
	<rect x="274.325" y="59.652" fill="#FFFFFF" width="24.505" height="8.891"/>
	<rect x="274.325" y="74.977" fill="#FFFFFF" width="22.434" height="8.954"/>
</g>
</svg>
