<?xml version="1.0" encoding="utf-8"?>
<!-- Generator: Adobe Illustrator 16.0.0, SVG Export Plug-In . SVG Version: 6.00 Build 0)  -->
<!DOCTYPE svg PUBLIC "-//W3C//DTD SVG 1.1//EN" "http://www.w3.org/Graphics/SVG/1.1/DTD/svg11.dtd">
<svg version="1.1" id="Layer_1" xmlns="http://www.w3.org/2000/svg" xmlns:xlink="http://www.w3.org/1999/xlink" x="0px" y="0px"
	 width="422px" height="132px" viewBox="0 0 422 132" enable-background="new 0 0 422 132" xml:space="preserve">
<g>
	<radialGradient id="SVGID_1_" cx="31.229" cy="54.248" r="84.2394" gradientUnits="userSpaceOnUse">
		<stop  offset="0" style="stop-color:#FFFFFF;stop-opacity:0.5"/>
		<stop  offset="0" style="stop-color:#F9FCFE;stop-opacity:0.5"/>
		<stop  offset="0.0159" style="stop-color:#EAF4FA;stop-opacity:0.508"/>
		<stop  offset="0.0646" style="stop-color:#BFDEF1;stop-opacity:0.5323"/>
		<stop  offset="0.1189" style="stop-color:#99CAE8;stop-opacity:0.5594"/>
		<stop  offset="0.1777" style="stop-color:#78B8E0;stop-opacity:0.5888"/>
		<stop  offset="0.2423" style="stop-color:#5CAAD9;stop-opacity:0.6211"/>
		<stop  offset="0.3147" style="stop-color:#459ED4;stop-opacity:0.6573"/>
		<stop  offset="0.3986" style="stop-color:#3495D0;stop-opacity:0.6993"/>
		<stop  offset="0.5009" style="stop-color:#288FCD;stop-opacity:0.7505"/>
		<stop  offset="0.6415" style="stop-color:#218BCB;stop-opacity:0.8208"/>
		<stop  offset="1" style="stop-color:#1F8ACB"/>
	</radialGradient>
	<path fill="url(#SVGID_1_)" d="M0,66.17c0,34.277,26.073,62.461,59.458,65.83V89.68L30.403,61.462V10.495
		C12.104,22.267,0,42.799,0,66.17"/>
	<radialGradient id="SVGID_2_" cx="92.0889" cy="38.498" r="97.469" gradientUnits="userSpaceOnUse">
		<stop  offset="0" style="stop-color:#FFFFFF;stop-opacity:0.5"/>
		<stop  offset="0" style="stop-color:#F9FCFE;stop-opacity:0.5"/>
		<stop  offset="0.0036" style="stop-color:#F5F8FA;stop-opacity:0.5018"/>
		<stop  offset="0.0475" style="stop-color:#C7C9CB;stop-opacity:0.5238"/>
		<stop  offset="0.0951" style="stop-color:#9D9FA0;stop-opacity:0.5476"/>
		<stop  offset="0.1477" style="stop-color:#77797A;stop-opacity:0.5738"/>
		<stop  offset="0.2045" style="stop-color:#575859;stop-opacity:0.6023"/>
		<stop  offset="0.267" style="stop-color:#3C3C3D;stop-opacity:0.6335"/>
		<stop  offset="0.3372" style="stop-color:#262626;stop-opacity:0.6686"/>
		<stop  offset="0.4182" style="stop-color:#151515;stop-opacity:0.7091"/>
		<stop  offset="0.5173" style="stop-color:#090909;stop-opacity:0.7586"/>
		<stop  offset="0.6533" style="stop-color:#020202;stop-opacity:0.8266"/>
		<stop  offset="1" style="stop-color:#000000"/>
	</radialGradient>
	<path fill="url(#SVGID_2_)" d="M43.834,3.868v57.599L72.897,89.68v42.316c20.134-2.024,37.608-13.091,48.309-29.074L78.168,62.163
		h19.567l29.972,28.386c2.99-7.538,4.636-15.766,4.636-24.379c0-25.984-14.967-48.464-36.763-59.295v32.858H82.128V1.94
		C77.013,0.671,71.679,0,66.173,0C58.333,0,50.806,1.361,43.834,3.868"/>
	<g>
		<g>
			<polygon fill="#1F8ACB" points="284.581,68.757 284.581,59.871 257.071,59.871 257.071,68.757 257.122,68.757 			"/>
			<rect x="257.071" y="90.398" fill="#1F8ACB" width="28.072" height="8.945"/>
			<rect x="257.071" y="75.188" fill="#1F8ACB" width="25.436" height="8.944"/>
		</g>
		<path d="M166.246,75.686h23.477V99.34h-12.188v-4.36c-0.722,0.667-1.285,1.177-2.788,2.121c-2.134,1.289-6.158,3.414-13.986,3.414
			c-11.743,0-22.528-6.603-22.528-20.409c0-1.395,0.109-2.849,0.395-4.252c0.731-3.913,2.688-8.273,6.93-11.791
			c5.536-4.586,12.86-5.98,20.059-5.98c3.092,0,6.225,0.327,9.24,0.949c4.796,1.066,8.383,2.792,11.407,6.257
			c1.218,1.398,1.622,2.353,2.243,3.637l-13.986,1.449c-2.57-2.679-5.653-3.406-8.668-3.406c-9.332,0-13.087,6.879-13.087,12.751
			c0,8.047,5.821,11.793,12.248,11.793c5.594,0,10.625-3.016,11.524-6.881h-10.289V75.686z"/>
		<rect x="194.083" y="59.871" width="14.137" height="39.477"/>
		<path d="M212.638,59.871h11.684l12.129,13.305c3.461,3.745,4.191,4.636,6.98,8.272c-0.219-5.427-0.26-7.324-0.26-12.632v-8.945
			h13.9v39.473h-11.734l-14.473-16.333c-2.008-2.343-2.688-3.188-4.477-5.418c0.168,6.821,0.168,8.328,0.219,13.364v8.387h-13.969
			V59.871z"/>
		<path d="M287.756,59.867h22.419c4.083,0,15.549-0.223,21.024,9.335c0.841,1.454,2.738,4.922,2.738,10.794
			c0,3.073-0.554,6.202-1.788,8.999c-1.009,2.298-2.848,5.48-7.376,7.833c-4.241,2.229-8.165,2.52-11.961,2.52h-25.057V59.867z
			 M301.573,90.394h6.208c4.804,0,7.543-0.89,9.164-2.353c1.897-1.675,3.184-4.972,3.184-8.322c0-3.746-1.513-6.604-3.521-8.22
			c-2.46-1.961-5.82-2.238-8.441-2.238h-6.594V90.394z"/>
		<rect x="335.995" y="59.871" width="14.146" height="39.477"/>
		<path d="M366.353,59.871h16.094l17.119,39.473h-15.381l-2.125-6.438h-15.086l-2.133,6.438h-15.488L366.353,59.871z
			 M374.458,70.828l-4.527,13.357h9.172L374.458,70.828z"/>
		<rect x="128.262" y="104.114" fill="#1F8ACB" width="287.094" height="1.394"/>
		<path fill="#FFFFFF" d="M421.312,104.811c0,3.281-2.67,5.943-5.955,5.943c-3.268,0-5.947-2.662-5.947-5.943
			c0-3.288,2.68-5.946,5.947-5.946C418.642,98.864,421.312,101.522,421.312,104.811"/>
		<path fill="#1F8ACB" d="M415.356,111.451c-3.654,0-6.645-2.979-6.645-6.637c0-3.661,2.99-6.651,6.645-6.651
			c3.662,0,6.645,2.99,6.645,6.651C422.001,108.473,419.019,111.451,415.356,111.451 M415.356,99.557
			c-2.891,0-5.258,2.357-5.258,5.258c0,2.898,2.367,5.242,5.258,5.242c2.898,0,5.25-2.344,5.25-5.242
			C420.606,101.914,418.255,99.557,415.356,99.557"/>
		<path fill="#1F8ACB" d="M415.944,101.296c0,0.328-0.27,0.597-0.588,0.597c-0.328,0-0.58-0.269-0.58-0.597
			c0-0.323,0.252-0.579,0.58-0.579C415.675,100.717,415.944,100.973,415.944,101.296"/>
		<path fill="#1F8ACB" d="M415.356,102.232c-0.504,0-0.934-0.415-0.934-0.937c0-0.517,0.422-0.924,0.934-0.924
			s0.934,0.411,0.934,0.924C416.29,101.817,415.868,102.232,415.356,102.232"/>
		<path fill="#1F8ACB" d="M415.944,108.611c0,0.328-0.27,0.584-0.588,0.584c-0.328,0-0.58-0.256-0.58-0.584s0.252-0.592,0.58-0.592
			C415.675,108.02,415.944,108.283,415.944,108.611"/>
		<path fill="#1F8ACB" d="M415.356,109.544c-0.504,0-0.934-0.424-0.934-0.933c0-0.52,0.43-0.939,0.934-0.939
			c0.512,0,0.934,0.42,0.934,0.939C416.29,109.12,415.868,109.544,415.356,109.544"/>
	</g>
</g>
</svg>
