<?xml version="1.0" encoding="utf-8"?>
<!-- Generator: Adobe Illustrator 16.0.0, SVG Export Plug-In . SVG Version: 6.00 Build 0)  -->
<!DOCTYPE svg PUBLIC "-//W3C//DTD SVG 1.1//EN" "http://www.w3.org/Graphics/SVG/1.1/DTD/svg11.dtd">
<svg version="1.1" id="Layer_1" xmlns="http://www.w3.org/2000/svg" xmlns:xlink="http://www.w3.org/1999/xlink" x="0px" y="0px"
	 width="52.414px" height="35px" viewBox="33.793 0 52.414 35" enable-background="new 33.793 0 52.414 35" xml:space="preserve">
<path fill="#CE202C" d="M33.793,23.333h52.414V35H33.793V23.333z"/>
<path fill="#273376" d="M33.793,11.667h52.414v11.667H33.793V11.667z"/>
<path fill="#FFCC02" d="M33.793,0h52.414v11.667H33.793V0z"/>
<g>
	<polygon fill="#FFFFFF" points="62.217,13.774 62.072,12.722 61.577,13.659 60.534,13.475 61.27,14.237 60.773,15.172 
		61.725,14.709 62.458,15.472 62.311,14.42 63.264,13.957 	"/>
	<polygon fill="#FFFFFF" points="65.611,15.819 66.667,15.708 66.667,15.708 66.667,15.708 66.667,15.708 66.667,15.708 
		65.749,15.183 65.969,14.146 65.186,14.854 64.27,14.324 64.697,15.288 63.912,15.997 64.963,15.886 65.391,16.856 	"/>
	<polygon fill="#FFFFFF" points="68.238,18.27 69.266,18.525 68.586,17.71 69.146,16.813 68.165,17.208 67.484,16.397 
		67.559,17.454 66.578,17.849 67.605,18.109 67.68,19.167 	"/>
	<polygon fill="#FFFFFF" points="70.384,21.061 71.218,20.41 70.162,20.445 69.802,19.451 69.509,20.469 68.451,20.507 69.327,21.1 
		69.036,22.118 69.869,21.467 70.746,22.055 	"/>
	<polygon fill="#FFFFFF" points="57.777,13.774 57.928,12.722 58.424,13.659 59.464,13.475 58.731,14.237 59.228,15.172 
		58.276,14.709 57.543,15.472 57.689,14.42 56.737,13.957 	"/>
	<polygon fill="#FFFFFF" points="54.389,15.819 53.334,15.708 53.334,15.708 53.334,15.708 53.334,15.708 53.334,15.708 
		54.251,15.183 54.032,14.146 54.816,14.854 55.732,14.324 55.303,15.288 56.088,15.997 55.038,15.886 54.606,16.856 	"/>
	<polygon fill="#FFFFFF" points="51.762,18.27 50.733,18.525 51.417,17.71 50.855,16.813 51.836,17.208 52.515,16.397 
		52.443,17.454 53.423,17.849 52.396,18.109 52.322,19.167 	"/>
	<polygon fill="#FFFFFF" points="49.616,21.061 48.783,20.41 49.838,20.445 50.199,19.451 50.492,20.469 51.547,20.507 50.67,21.1 
		50.965,22.118 50.132,21.467 49.255,22.055 	"/>
</g>
</svg>
